<svg viewBox="-54 -54 508 508" fill="none" xmlns="http://www.w3.org/2000/svg">
<rect x="-54" y="-54" width="508" height="508" rx="146" fill="white"/>
<path d="M167 193C191.192 177.692 205.001 176.323 230 193" stroke="black" stroke-width="20"/>
<path d="M238 201C238.269 235.288 266.147 263 300.498 263C334.849 263 362.727 235.288 362.996 201" stroke="#78BC61" stroke-width="30"/>
<path d="M363 200.5C363 200.667 362.999 200.833 362.998 201M238.002 201C238.001 200.833 238 200.667 238 200.5C238 165.982 265.982 138 300.5 138C335.018 138 363 165.982 363 200.5" stroke="black" stroke-width="30"/>
<path d="M37 200C37.2687 234.288 65.1471 262 99.498 262C133.849 262 161.727 234.288 161.996 200" stroke="#78BC61" stroke-width="30"/>
<path d="M162 199.5C162 199.667 161.999 199.833 161.998 200M37.002 200C37.0007 199.833 37 199.667 37 199.5C37 164.982 64.9822 137 99.5 137C134.018 137 162 164.982 162 199.5" stroke="black" stroke-width="30"/>
</svg>
